<?xml version="1.0" encoding="UTF-8"?>
<svg id="Layer_2" data-name="Layer 2" xmlns="http://www.w3.org/2000/svg" viewBox="0 0 721.55 642.16">
  <defs>
    <style>
      .cls-1 {
        fill: #000;
        stroke-width: 0px;
      }
    </style>
  </defs>
  <g id="Layer_1-2" data-name="Layer 1">
    <g>
      <g>
        <path class="cls-1" d="M190.32,217.72c-4.19,9.01-9.32,18.95-15.39,29.84-6.08,10.89-12.67,22.04-19.79,33.45-7.12,11.41-14.56,22.67-22.3,33.76-7.75,11.09-15.39,21.3-22.93,30.62-7.54,9.31-14.66,17.43-21.36,24.34-6.7,6.91-12.67,11.72-17.9,14.45-5.23,2.93-11.26,4.55-18.06,4.87-6.81.31-13.56-.27-20.26-1.73-6.7-1.47-12.98-3.72-18.84-6.75-5.86-3.04-10.36-6.65-13.5-10.84,12.14-4.82,23.34-11.1,33.6-18.84,10.26-7.75,19.73-16.23,28.42-25.44,8.69-9.22,16.8-19,24.34-29.36,7.54-10.36,14.6-20.62,21.2-30.78,6.59-10.15,12.98-19.94,19.16-29.36,6.17-9.42,12.19-17.79,18.06-25.12,3.77-4.6,8.11-8.95,13.03-13.03,4.92-4.08,9.84-7.43,14.76-10.05,4.92-2.62,9.37-4.29,13.35-5.03,3.97-.73,7.07-.1,9.26,1.89,2.2,1.99,3.03,5.65,2.51,10.99-.52,5.34-2.98,12.72-7.38,22.14Z"/>
        <path class="cls-1" d="M223.15,35.81c0-12.56,1.73-21.72,5.18-27.48C231.78,2.58,235.71-.2,240.11.01c4.4.21,8.53,3.25,12.41,9.11,3.87,5.86,6.02,14.13,6.44,24.81.84,16.96,1.89,34.55,3.14,52.76,1.26,18.22,2.72,36.59,4.4,55.12,1.67,18.53,3.56,36.85,5.65,54.96,2.09,18.11,4.29,35.64,6.59,52.6.63,5.65,1.78,10.79,3.46,15.39,1.67,4.61,4.29,8.53,7.85,11.78,3.56,3.25,8.27,5.76,14.13,7.54,5.86,1.78,13.4,2.67,22.61,2.67,6.07,0,11.25,2.2,15.55,6.59,4.29,4.4,6.44,9.74,6.44,16.02s-2.09,11.36-6.28,15.86c-4.19,4.51-9.42,6.75-15.7,6.75-19.05,0-35.07-3.09-48.05-9.27-12.98-6.17-22.72-14.5-29.21-24.97-2.31-3.77-4.45-9.79-6.44-18.06-1.99-8.27-3.82-18.06-5.5-29.36-1.68-11.31-3.19-23.71-4.55-37.22-1.36-13.5-2.57-27.27-3.61-41.3-1.05-14.02-1.94-28-2.67-41.93-.74-13.92-1.36-26.95-1.88-39.1-.53-12.14-.94-22.97-1.26-32.5-.31-9.53-.47-17.01-.47-22.45Z"/>
        <path class="cls-1" d="M344.06,206.03c.63-11.72,4.03-21.14,10.21-28.26,6.17-7.12,13.66-12.35,22.45-15.7,8.79-3.35,18.26-5.07,28.42-5.18,10.15-.1,19.73,1,28.74,3.3,12.35,3.14,25.33,7.12,38.94,11.93,13.61,4.82,27.37,9.95,41.3,15.39,13.92,5.45,27.74,10.94,41.45,16.49,13.71,5.55,27.06,10.52,40.04,14.92,2.93,1.26,6.02,2.36,9.26,3.3,3.24.94,6.23,2.15,8.95,3.61,2.72,1.47,4.97,3.41,6.75,5.81,1.78,2.41,2.88,5.71,3.3,9.89.21,6.49-.31,11.41-1.57,14.76-1.26,3.35-3.14,5.76-5.65,7.22-2.51,1.47-5.45,2.25-8.79,2.36-3.35.11-7.02.16-10.99.16-3.56.21-7.07.47-10.52.78-3.45.32-6.96.68-10.52,1.1.63.42,2.04,1.68,4.24,3.77,2.2,2.1,5.5,4.24,9.89,6.44,4.4,2.2,9.94,4.19,16.65,5.97,6.7,1.78,14.97,2.67,24.81,2.67,6.07,0,11.2,2.2,15.39,6.59,4.19,4.4,6.28,9.74,6.28,16.02s-2.1,11.62-6.28,16.02c-4.19,4.4-9.21,6.6-15.07,6.6-21.36.21-40.73-4.66-58.1-14.6-17.38-9.94-31.72-23.08-43.03-39.42-15.29,4.4-31.51,9.69-48.68,15.86-17.17,6.18-34.65,12.09-52.45,17.74-17.8,5.65-35.38,10.47-52.76,14.45-17.38,3.98-33.92,5.97-49.62,5.97-6.07,0-11.15-2.2-15.23-6.6-4.08-4.4-6.12-9.74-6.12-16.02s2.04-11.62,6.12-16.02c4.08-4.4,9.06-6.59,14.92-6.59,19.68-1.05,37.22-2.98,52.6-5.81,15.39-2.83,30.2-6.38,44.44-10.68,14.24-4.29,28.68-9.16,43.34-14.6,14.65-5.44,31.09-11.31,49.31-17.59-12.56-5.03-25.12-10.1-37.69-15.23-12.56-5.13-24.5-9.42-35.8-12.88-11.31-3.46-21.57-5.65-30.78-6.6-9.22-.94-16.75.05-22.61,2.98-.42,5.45-2.67,10.1-6.75,13.98-4.08,3.88-8.85,6.02-14.29,6.44-2.94.42-5.86.05-8.79-1.1-2.94-1.15-5.55-2.67-7.85-4.55-2.31-1.88-4.19-4.13-5.65-6.75-1.47-2.62-2.2-5.39-2.2-8.32ZM467.8,331.97c7.74,0,14.34,2.77,19.79,8.32,5.44,5.55,8.17,12.3,8.17,20.26,0,3.98-.74,7.7-2.2,11.15-1.47,3.46-3.45,6.49-5.97,9.11-2.51,2.62-5.5,4.66-8.95,6.12-3.45,1.46-7.07,2.2-10.83,2.2s-7.33-.74-10.68-2.2c-3.35-1.47-6.28-3.51-8.79-6.12-2.51-2.62-4.51-5.65-5.97-9.11-1.47-3.45-2.2-7.17-2.2-11.15s.73-7.69,2.2-11.15c1.46-3.45,3.46-6.49,5.97-9.11,2.51-2.62,5.44-4.66,8.79-6.12,3.35-1.47,6.91-2.2,10.68-2.2Z"/>
        <path class="cls-1" d="M631.42,286.74c2.3,0,5.39-.36,9.27-1.1,3.87-.73,7.8-1.78,11.78-3.14,3.98-1.36,7.85-2.98,11.62-4.87,3.77-1.88,6.86-4.03,9.27-6.44,2.4-2.41,3.82-5.03,4.24-7.85.42-2.83-.74-5.91-3.46-9.27-7.75-9.42-12.62-17.85-14.6-25.28-1.99-7.43-2.2-13.71-.63-18.84,1.57-5.13,4.5-9.11,8.79-11.93,4.29-2.83,8.84-4.29,13.66-4.4,4.81-.1,9.42,1.15,13.82,3.77,4.4,2.62,7.43,6.75,9.11,12.41,1.46,5.45,3.24,10.21,5.34,14.29,2.09,4.08,4.03,8.17,5.81,12.25,1.78,4.08,3.24,8.48,4.4,13.19,1.15,4.71,1.73,10.32,1.73,16.8-.21,11.31-3.19,21.1-8.95,29.36-5.76,8.27-13.03,15.07-21.83,20.41-8.79,5.34-18.43,9.32-28.89,11.93-10.47,2.62-20.62,3.93-30.46,3.93-6.28,0-11.51-2.25-15.7-6.75-4.19-4.5-6.28-9.79-6.28-15.86s2.15-11.62,6.44-16.02c4.29-4.4,9.48-6.59,15.55-6.59ZM658.11,99.57c7.74,0,14.34,2.78,19.79,8.32,5.44,5.55,8.17,12.41,8.17,20.57s-2.72,14.71-8.17,20.26c-5.45,5.55-12.04,8.32-19.79,8.32-3.77,0-7.33-.73-10.68-2.2-3.35-1.46-6.23-3.5-8.64-6.12-2.41-2.62-4.35-5.65-5.81-9.11-1.47-3.46-2.2-7.17-2.2-11.15,0-8.17,2.67-15.02,8.01-20.57,5.34-5.55,11.78-8.32,19.31-8.32Z"/>
      </g>
      <g>
        <path class="cls-1" d="M26.08,496.24c2.59.24,4.71,1.39,6.36,3.45,1.66,2.06,2.32,4.42,2,7.09l-.97,6.3c1.13,3.88,2.67,8.85,4.61,14.91,1.94,6.06,4.06,12.51,6.36,19.33,2.3,6.83,4.71,13.68,7.21,20.55,2.5,6.87,4.95,13.05,7.33,18.55,2.38,5.5,4.57,9.98,6.55,13.46,1.98,3.48,3.62,5.21,4.91,5.21.97,0,1.96-1.49,2.97-4.49,1.01-2.99,1.94-6.87,2.79-11.64.85-4.77,1.7-10.22,2.55-16.36.85-6.14,1.58-12.43,2.18-18.85s1.19-12.69,1.76-18.79c.56-6.1,1.03-11.6,1.39-16.49.36-4.89.79-10.32,1.27-16.31.08-2.58,1.09-4.79,3.03-6.61,1.94-1.82,4.24-2.65,6.91-2.48,2.67.16,4.87,1.23,6.61,3.21,1.74,1.98,2.56,4.3,2.48,6.97-.41,7.36-.85,14-1.33,19.94-.48,5.94-1.13,12.73-1.94,20.37-.81,7.64-1.8,15.42-2.97,23.33-1.17,7.92-2.53,15.68-4.06,23.27-1.54,7.6-3.29,14.39-5.27,20.37-1.98,5.98-4.22,10.79-6.73,14.42-2.51,3.64-5.25,5.45-8.24,5.45-3.64,0-7.42-2.02-11.33-6.06-3.92-4.04-7.86-9.41-11.82-16.12-3.96-6.71-7.86-14.4-11.7-23.09-3.84-8.69-7.41-17.68-10.73-26.97l-7.52,63.88c-.32,2.67-1.52,4.81-3.58,6.42-2.06,1.62-4.42,2.26-7.09,1.94-2.67-.32-4.81-1.51-6.42-3.58-1.62-2.06-2.26-4.38-1.94-6.97l12.49-105.46c-.16-.49-.32-.99-.48-1.52-.16-.52-.32-1.19-.48-2-.48-1.78-.42-3.52.18-5.21.61-1.7,1.59-3.11,2.97-4.24.89-1.86,2.2-3.25,3.94-4.18,1.74-.93,3.66-1.27,5.76-1.03Z"/>
        <path class="cls-1" d="M271.34,583.51c-2.46-.07-4.55-1.01-6.27-2.8-1.72-1.79-2.5-3.88-2.35-6.27.15-2.39,1.1-4.42,2.85-6.1,1.75-1.68,3.86-2.48,6.32-2.41,5.74.22,11.12.34,16.12.34s9.23-.07,13.15-.22c3.92-.15,7.33-.34,10.24-.56,3.36-.3,6.3-.52,8.84-.67,2.46-.15,4.64.54,6.55,2.07,1.9,1.53,2.93,3.49,3.08,5.88.22,2.46-.41,4.63-1.9,6.49-1.49,1.87-3.47,2.91-5.93,3.13-.08,0-1.61.13-4.59.39-2.99.26-6.98.5-11.98.73-.45,2.31-.99,5.11-1.62,8.39-.64,3.28-1.33,6.9-2.07,10.86-.75,3.96-1.55,8.23-2.41,12.82-.86,4.59-1.74,9.35-2.63,14.27-.45,2.46-1.66,4.35-3.64,5.65-1.98,1.3-4.2,1.77-6.66,1.4-1.87-.37-3.47-1.27-4.81-2.69-1.34-1.42-2.09-3.1-2.24-5.04-3.36,1.86-6.85,3.28-10.46,4.25-3.62.97-7.48,1.45-11.58,1.45-10.52.15-19.33-1.33-26.41-4.42-7.09-3.1-12.69-8.08-16.79-14.94-4.55-7.83-6.83-17.94-6.83-30.33,0-3.95.22-8.08.67-12.37.45-4.29,1.08-8.93,1.9-13.93,1.12-6.04,2.52-11.45,4.2-16.23,1.68-4.77,3.65-9.07,5.93-12.87,2.27-3.81,4.87-7.26,7.78-10.35,2.91-3.1,6.12-5.99,9.63-8.67,2.98-2.16,6.04-3.95,9.18-5.37,3.13-1.42,6.17-2.55,9.12-3.41,2.95-.86,5.76-1.45,8.45-1.79,2.69-.34,5.15-.5,7.39-.5,4.4,0,8.88.37,13.43,1.12,4.55.75,8.77,2.31,12.65,4.7,3.88,2.24,7,5.28,9.35,9.12,2.35,3.84,3.53,8.75,3.53,14.72,0,1.79-.15,3.66-.45,5.6-.3,2.46-1.4,4.46-3.3,5.99-1.9,1.53-4.05,2.11-6.44,1.74-2.46-.3-4.44-1.4-5.93-3.3-1.49-1.9-2.09-4.09-1.79-6.55.37-3.43.17-6.12-.62-8.06-.78-1.94-1.92-3.36-3.41-4.25-2.24-1.27-4.87-2.11-7.89-2.52-3.02-.41-6.06-.61-9.12-.61s-6.87.52-11.19,1.57c-4.33,1.05-8.62,3.1-12.87,6.16-2.54,2.01-4.85,4.16-6.94,6.44-2.09,2.28-3.99,4.87-5.71,7.78-1.72,2.91-3.21,6.23-4.48,9.96-1.27,3.73-2.31,7.95-3.13,12.65-.82,4.55-1.42,8.79-1.79,12.7-.37,3.92-.56,7.56-.56,10.91,0,9.1,1.49,16.08,4.48,20.93,4.4,7.39,13.62,10.97,27.64,10.74,2.91,0,5.52-.32,7.83-.95,2.31-.63,4.63-1.66,6.94-3.08,2.54-1.49,4.66-3.28,6.38-5.37,1.72-2.09,3.13-4.23,4.25-6.44,1.12-2.2,1.96-4.33,2.52-6.38.56-2.05.88-3.82.95-5.32,0-.67.09-1.32.28-1.96.19-.63.47-1.29.84-1.96l.45-1.79c-5.07,0-10.45-.15-16.12-.45Z"/>
        <path class="cls-1" d="M443.98,641.21c-2.35,1.13-4.77,1.25-7.27.36-2.51-.81-4.32-2.38-5.45-4.73-1.13-2.35-1.33-4.77-.61-7.27,1.94-5.58,3.76-10.69,5.45-15.33,1.7-4.65,3.7-10.04,6-16.18,2.3-6.14,4.79-12.65,7.46-19.52-2.26-.57-4.1-1.78-5.52-3.64-1.42-1.86-2.04-3.96-1.88-6.3.24-2.67,1.37-4.85,3.39-6.55,2.02-1.7,4.32-2.46,6.91-2.3l4.61.36c3.47-8.32,7.03-16.38,10.67-24.18,3.64-7.8,7.21-14.77,10.73-20.91,3.52-6.14,6.85-11.09,10-14.85,3.15-3.76,6.02-5.64,8.61-5.64,1.94,0,3.66.97,5.15,2.91,1.49,1.94,2.83,4.55,4,7.82,1.17,3.27,2.18,7.15,3.03,11.64.85,4.48,1.59,9.32,2.24,14.49.65,5.17,1.19,10.61,1.64,16.3.44,5.7.75,11.38.91,17.03,2.18.65,3.92,1.9,5.21,3.76,1.29,1.86,1.86,4,1.7,6.42-.16,1.94-.81,3.66-1.94,5.15-1.13,1.5-2.63,2.53-4.49,3.09.08,3.07.12,5.98.12,8.73v8.24c0,6.79-.04,12.32-.12,16.61-.08,4.28-.12,6.47-.12,6.55-.08,2.67-1.07,4.91-2.97,6.73-1.9,1.82-4.18,2.69-6.85,2.61-2.59-.08-4.81-1.07-6.67-2.97-1.86-1.9-2.75-4.18-2.67-6.85.08-4.36.2-8.38.36-12.06.16-3.68.3-7.92.42-12.73.12-4.81.22-9.96.3-15.46l-27.88-2.3c-2.59,7.11-5.05,14-7.39,20.67-2.34,6.67-4.45,12.55-6.3,17.64-1.86,5.09-3.8,10.79-5.82,17.09-.97,2.58-2.63,4.44-4.97,5.58ZM493.92,519.26c-.73,0-1.66,1.01-2.79,3.03-1.13,2.02-2.47,4.87-4,8.55-1.54,3.68-3.29,8.1-5.27,13.27-1.98,5.17-4.14,10.95-6.49,17.33l21.58,1.82c0-1.13.02-2.24.06-3.33.04-1.09.06-2.12.06-3.09,0-5.58-.14-10.67-.42-15.27-.28-4.61-.59-8.57-.91-11.88-.32-3.31-.65-5.88-.97-7.7-.32-1.82-.61-2.73-.85-2.73Z"/>
        <path class="cls-1" d="M634.58,522.28v-.12c-1.54.16-3.05.38-4.55.67-1.5.28-3.05.59-4.67.91-2.59.41-4.95-.12-7.09-1.58-2.14-1.45-3.46-3.52-3.94-6.18-.41-2.59.14-4.95,1.64-7.09,1.49-2.14,3.58-3.45,6.24-3.94,8-1.45,15.74-2.61,23.21-3.45,7.47-.85,14.65-1.27,21.52-1.27,8.65,0,16.28.81,22.91,2.42,4.69,1.13,8.87,2.67,12.55,4.61,3.68,1.94,6.81,4.32,9.39,7.15,2.59,2.83,4.59,6.12,6,9.88,1.41,3.76,2.12,8.06,2.12,12.91,0,1.45-.04,2.93-.12,4.42-.08,1.5-.28,3.05-.61,4.67-1.45,8.49-4.57,15.86-9.33,22.12-4.77,6.26-10.71,10.97-17.82,14.12-1.45.65-2.89,1.21-4.3,1.7-1.42.49-2.89.93-4.42,1.33,4.52,6.3,9.11,12.71,13.76,19.21,4.65,6.51,9.96,12.79,15.94,18.85,1.78,1.86,2.67,4.08,2.67,6.67s-.93,4.81-2.79,6.67c-1.86,1.86-4.08,2.79-6.67,2.79s-4.85-.97-6.79-2.91c-3.88-3.96-7.52-8.06-10.91-12.3-3.39-4.24-6.65-8.49-9.76-12.73-3.11-4.24-6.16-8.44-9.15-12.61-2.99-4.16-6.1-8.22-9.33-12.18-2.42-.08-4.77-.38-7.03-.91-2.26-.52-4.45-1.43-6.55-2.73l-4.97,44.37c-.41,2.67-1.64,4.81-3.7,6.42-2.06,1.61-4.38,2.3-6.97,2.06-2.59-.4-4.71-1.62-6.36-3.64-1.66-2.02-2.32-4.36-2-7.03l11.88-103.28ZM648.77,565.44c2.5-1.53,5.05-2.3,7.64-2.3,2.02,0,4,.45,5.94,1.33,1.94.89,3.96,2.18,6.06,3.88,2.75,0,5.47-.24,8.18-.73,2.71-.48,5.27-1.33,7.7-2.55,4.36-1.94,7.9-4.73,10.61-8.36,2.71-3.64,4.55-8.04,5.52-13.21.32-1.62.48-3.15.48-4.61,0-5.09-1.39-9.01-4.18-11.76-2.79-2.75-6.57-4.73-11.33-5.94-5.5-1.37-11.8-2.06-18.91-2.06-2.18,0-4.38.08-6.61.24-2.22.16-4.51.32-6.85.49.56,1.29.77,2.79.61,4.48l-4.85,41.09Z"/>
      </g>
    </g>
  </g>
</svg>